<?xml version="1.0" standalone="no"?>
<!DOCTYPE svg PUBLIC "-//W3C//DTD SVG 20010904//EN"
 "http://www.w3.org/TR/2001/REC-SVG-20010904/DTD/svg10.dtd">
<svg version="1.0" xmlns="http://www.w3.org/2000/svg"
  viewBox="0 0 1512.000000 1512.000000"
 preserveAspectRatio="xMidYMid meet">

<g transform="translate(0.000000,1512.000000) scale(0.100000,-0.100000)"
fill="#fff" stroke="none">
<path d="M7205 14843 c-38 -2 -155 -10 -260 -19 -2195 -180 -4201 -1359 -5436
-3194 -812 -1205 -1239 -2608 -1239 -4065 0 -1948 766 -3788 2149 -5165 1129
-1124 2591 -1846 4158 -2055 558 -74 1151 -84 1708 -29 1668 165 3231 907
4420 2098 945 947 1600 2104 1920 3390 136 548 201 1045 212 1626 35 1833
-599 3561 -1818 4955 -146 167 -477 498 -644 644 -1254 1096 -2757 1712 -4420
1811 -154 9 -572 11 -750 3z m505 -2294 c276 -25 517 -108 730 -252 102 -69
265 -229 340 -335 116 -163 206 -376 251 -599 18 -87 23 -148 25 -315 l3 -207
51 -63 c100 -124 147 -254 137 -378 -15 -183 -141 -358 -359 -501 l-89 -58
-84 -168 c-139 -281 -265 -463 -440 -638 -380 -379 -817 -444 -1221 -180 -247
161 -466 431 -654 808 l-89 178 -89 58 c-218 143 -344 319 -359 501 -10 124
37 254 137 377 l51 63 3 207 c2 165 8 231 25 316 96 472 359 830 756 1030 263
132 562 185 875 156z m-2743 -984 c46 -9 117 -27 160 -41 129 -42 307 -138
299 -161 -3 -7 -11 -81 -17 -165 -11 -141 -14 -157 -42 -201 -16 -26 -45 -84
-63 -129 -203 -481 -57 -1004 386 -1381 48 -42 53 -48 37 -58 -9 -5 -44 -65
-78 -132 -33 -67 -65 -127 -72 -134 -7 -7 -68 -35 -137 -63 -294 -121 -646
-326 -829 -482 -112 -96 -97 -91 -173 -58 -241 101 -466 350 -649 715 l-71
140 -71 48 c-111 74 -202 169 -245 256 -35 71 -37 80 -37 170 0 83 4 104 27
154 15 32 47 83 71 115 l45 57 6 175 c6 186 20 275 62 405 144 438 502 726
972 784 102 13 317 6 419 -14z m5580 14 c643 -71 1066 -570 1052 -1240 l-3
-126 42 -48 c24 -27 57 -78 75 -114 29 -60 32 -74 32 -161 0 -88 -3 -101 -34
-164 -43 -87 -144 -195 -245 -261 l-77 -50 -63 -130 c-176 -360 -425 -633
-667 -731 l-60 -25 -67 59 c-218 191 -567 396 -890 522 l-112 44 -66 133 c-36
73 -73 137 -82 143 -14 8 -7 18 48 66 243 215 389 450 444 719 53 262 7 545
-128 775 -34 58 -36 65 -46 210 -6 82 -13 156 -15 163 -7 17 108 86 215 130
200 82 421 111 647 86z m-3633 -3999 c543 -943 641 -1107 651 -1092 6 9 294
508 640 1107 346 600 630 1092 632 1095 13 15 410 -114 614 -200 682 -288
1036 -675 1006 -1100 -19 -256 -145 -824 -463 -2085 -175 -693 -346 -1381
-412 -1655 -52 -221 -116 -349 -241 -482 -156 -166 -341 -261 -561 -288 -115
-14 -2335 -14 -2450 0 -271 33 -514 186 -664 418 -73 112 -103 196 -166 462
-33 137 -176 713 -319 1282 -418 1664 -531 2176 -531 2402 0 436 422 834 1185
1116 120 45 395 129 420 129 16 0 146 -219 659 -1109z m-3040 593 l189 -326
-16 -66 c-33 -139 -40 -200 -41 -336 0 -313 96 -758 549 -2563 140 -557 255
-1020 255 -1028 0 -13 -66 -15 -557 -12 -546 4 -560 5 -633 27 -279 84 -455
284 -531 606 -17 72 -134 540 -259 1040 -307 1225 -406 1656 -433 1893 -25
224 45 396 237 580 195 187 531 361 921 476 66 19 122 35 125 35 3 1 90 -146
194 -326z m7672 292 c436 -128 776 -310 974 -522 162 -173 221 -343 191 -554
-36 -260 -127 -653 -430 -1869 -131 -525 -250 -1004 -264 -1065 -60 -253 -202
-440 -411 -540 -147 -70 -132 -68 -748 -72 -505 -4 -558 -3 -558 12 0 8 119
489 264 1068 452 1798 538 2201 539 2517 0 141 -7 204 -40 341 l-16 66 189
326 c103 180 189 327 189 327 1 0 55 -16 121 -35z"/>
</g>
</svg>
